<svg xmlns="http://www.w3.org/2000/svg" width="653" height="653"><path d="m312.352-.203 3.203-.017c2.23-.01 4.46-.016 6.691-.02 3.322-.01 6.643-.04 9.965-.073a287.677 287.677 0 0 1 57.601 5.5c1.057.21 2.114.418 3.202.633 68.422 14.074 137.82 52.01 181.787 107.422 2.274 2.853 4.638 5.613 7.011 8.383 43.239 51.98 71.097 122.835 71.391 190.727l.017 3.203c.01 2.23.016 4.46.02 6.691.01 3.322.04 6.643.072 9.965a287.677 287.677 0 0 1-5.5 57.601l-.632 3.202c-14.074 68.422-52.01 137.82-107.422 181.787-2.853 2.274-5.613 4.638-8.383 7.011-51.98 43.239-122.835 71.097-190.727 71.391l-3.203.017c-2.23.01-4.46.016-6.691.02-3.322.01-6.643.04-9.965.072a287.677 287.677 0 0 1-57.601-5.5l-3.202-.632c-68.422-14.074-137.82-52.01-181.787-107.422-2.274-2.853-4.638-5.613-7.011-8.383C27.949 479.395.09 408.54-.204 340.648l-.017-3.203c-.01-2.23-.016-4.46-.02-6.691-.01-3.322-.04-6.643-.073-9.965a287.677 287.677 0 0 1 5.5-57.601c.21-1.057.418-2.114.633-3.202 14.074-68.422 52.01-137.82 107.422-181.787 2.853-2.274 5.613-4.638 8.383-7.011C173.605 27.949 244.46.09 312.352-.204z" fill="#010101"/><path d="M105 159h67v246h44c3.235 3.882 5.778 7.048 8.313 11.25 5.815 9.21 12.661 16.906 20.312 24.625l2.208 2.237c3.849 3.825 7.55 7.044 12.167 9.888 1.343.987 2.677 1.986 4 3 6.669 5.023 13.643 9.073 21 13v2H104c-.04-78.005-.04-78.005-.049-110.502l-.006-22.317v-2.825c-.005-15.073-.013-30.147-.022-45.22-.01-15.458-.015-30.915-.017-46.373-.001-9.546-.006-19.092-.014-28.638-.005-6.537-.007-13.073-.006-19.61.001-3.778 0-7.555-.005-11.332-.006-4.085-.004-8.17-.001-12.256l-.01-3.658.007-3.289-.001-2.862C104 160 104 160 105 159z" fill="#FDFDFD"/><path d="M410 166v2l3.938.25c5.22.568 9.415 2.395 14.062 4.75l2.262 1.129L432 175v2c.71.182 1.42.364 2.152.55l2.786.762 2.777.739L442 180l1 3c1.644.72 3.315 1.38 5 2 9.946 6.127 19.931 13.639 27 23v2l3 1c5 5.233 5 5.233 5 10a51.838 51.838 0 0 1-5.875 4.25 879.26 879.26 0 0 0-3.633 2.402l-1.817 1.203c-2.245 1.534-4.332 3.223-6.425 4.958-4.454 3.644-9.099 6.954-13.813 10.25-10.52 6.283-10.52 6.283-18.437 14.937-2.313-.188-2.313-.188-5-1a87.917 87.917 0 0 1-3-5 131.2 131.2 0 0 0-5-4l-2.29-2.367c-2.745-2.667-5.505-4.673-8.71-6.758l-3.063-2.008L403 236l-2.395-1.582c-3.299-1.796-6.714-2.899-10.293-3.98l-1.99-.631c-8.853-2.729-17.424-4.197-26.697-4.182h-2.843c-16.492.092-16.492.092-30.782 6.375a92.832 92.832 0 0 1-4.625 1.813c-8.166 3.198-14.122 7.608-20.492 13.613C301 249 301 249 299 249l-.793 1.766c-1.273 2.357-2.696 4.027-4.52 5.984-4.624 5.173-8.416 10.644-10.687 17.25h-2l-.313 2.313c-.928 4.981-2.308 9.813-3.687 14.687h-2v45h2l.516 2.309c1.554 6.623 3.483 12.593 6.484 18.691l1.5 3.375c1.286 2.677 1.286 2.677 3.438 4 2.237 1.763 2.688 2.762 3.812 5.313 2.707 5.82 7.313 10.216 12.5 13.917L307 385v2h-84l-3-8a187.69 187.69 0 0 0-2-4.438c-3.851-8.596-6.005-17.377-8-26.562-.358-1.48-.718-2.959-1.078-4.438-6.793-29.073-3.898-62.166 10.194-88.766.923-1.875 1.604-3.75 2.259-5.733 1.464-4.08 3.698-7.383 6.164-10.926 1.6-2.272 1.6-2.272 3.274-5.387 2.063-3.697 4.431-7.19 6.812-10.688l1.202-1.795c1.006-1.46 2.084-2.869 3.173-4.267h2l.73-1.723c1.52-2.725 3.344-4.544 5.583-6.714l2.437-2.375L255 203c.94-.977 1.878-1.956 2.813-2.938 2.009-1.894 3.646-3.027 6.187-4.062v-2l4-1v-2c8.198-6.768 22.963-18 34-18v-2c9.874-3.962 19.45-7.28 30-9l3.68-.621c25.019-3.716 50.1-2.6 74.32 4.621z" fill="#FCFCFC"/><path d="M431 368c3.524.667 6.183 2.104 9.25 3.938l2.703 1.59L445 375v2l1.566.727c3.244 1.697 6.298 3.666 9.372 5.648l1.841 1.172c3.584 2.304 6.896 4.783 10.221 7.453 1.797 1.17 3.61 2.315 5.438 3.438 4.154 2.604 7.906 5.301 11.562 8.562-2.242 12.945-20.056 28.29-30 36a195.029 195.029 0 0 1-8.293 5.328c-2.58 1.594-5.042 3.298-7.52 5.047-3.365 2.276-6.045 3.413-10.187 3.625v2c-7.98 3.858-15.915 7.167-24.297 10.02-2.586.721-2.586.721-3.703 1.98-13 2.861-26.057 3.324-39.313 3.375l-2.29.023c-10.808.088-20.855-1.022-31.397-3.398l-2.512-.557c-6.655-1.554-13.096-3.414-19.258-6.384-2.659-1.262-5.373-2.339-8.105-3.434-8.805-3.663-18.132-7.973-25.125-14.625v-2l-1.777-.316c-2.575-.792-3.808-1.806-5.786-3.622l-2.078-1.89L261 433l-2.86-2.547C249.27 422.52 249.27 422.52 247 419v-2h-2c-2.172-2.962-3.836-5.507-5-9h-2v-3l2.166-.004c17.438-.038 34.875-.097 52.313-.18 8.433-.04 16.866-.072 25.299-.087 7.355-.013 14.71-.04 22.065-.084 3.89-.022 7.78-.038 11.67-.037 3.671 0 7.343-.017 11.014-.05 1.97-.012 3.938-.005 5.907.003 12.148-.14 22.24-3.306 32.566-9.561l2.727-1.418c6.282-3.357 11.549-7.287 16.773-12.082l1.78-1.617c3.82-3.623 6.308-7.202 8.72-11.883z" fill="#FBFBFB"/><path d="M488.313 240.875c3.46 1.056 4.92 1.984 7.687 4.125 1.322.73 2.656 1.438 4 2.125 13.71 7.54 26.132 18.79 36 30.875l2.25 2.625c1.963 2.664 3.321 5.393 4.75 8.375 1.634 2.77 3.314 5.51 5 8.25 2.303 4.093 3.684 8.252 5 12.75l.583 1.985c.67 2.294 1.326 4.591 1.98 6.89l.636 2.214c3.032 10.881 4.121 21.108 4.051 32.411l.023 3.762c-.015 7.474-.614 14.45-2.273 21.738l-.458 2.08c-1.95 8.444-4.732 16.139-8.542 23.92-1.27 2.893-2.533 5.788-3.79 8.688-1.183 2.26-2.402 3.554-4.21 5.312l-1 3h-2l-.813 2.25C536 427 536 427 534.375 428.938c-1.94 2.91-1.774 4.6-1.375 8.062a326.231 326.231 0 0 0 2.266 5.7c1.374 4.306 1.495 8.809 1.734 13.3h2l3 10h2l1.25 2.625c1.697 3.429 1.697 3.429 3.938 6.625C551 478 551 478 551 480h2c1.625 1.313 1.625 1.313 3 3v3c-20.716.969-37.885-5.174-53.672-18.766C500 465 500 465 498 462c-3.066-.733-3.066-.733-6-1v2l-10 2v2c-3.773 2.282-7.847 2.84-12.125 3.563-5.082.736-5.082.736-9.875 2.437a74.6 74.6 0 0 1-4.57.098l-2.715-.01-2.84-.026-2.863-.013c-2.338-.012-4.675-.028-7.012-.049v-2l3.313-1.813c1.988-1.13 3.567-2.067 5.187-3.687 3.615-3.615 8.748-5.772 13.5-7.5v-2h2v-2c1.65-1.026 3.32-2.023 5-3l1.625-1.625C472 448 472 448 475 447c1.417-1.431 1.417-1.431 2.75-3.188 2.109-2.569 4.228-4.723 6.813-6.812 3.02-2.488 5.162-5.117 7.296-8.387C493 427 493 427 494.434 425.61c1.987-2.041 3.367-4.257 4.878-6.671l1.844-2.934a458.88 458.88 0 0 0 6.582-11.106C509 403 509 403 511 402c3.489-6.782 5.68-13.92 7.379-21.328.621-2.672.621-2.672 1.746-6.235 4.768-18.731 2.91-41.829-3.32-59.996C516 312 516 312 516 310l-3-1c-1.168-1.996-1.168-1.996-2.188-4.438l-1.042-2.433C509 300 509 300 509 298h-2c-1.297-1.941-1.297-1.941-2.75-4.563-3.315-5.713-6.707-10.742-12.25-14.437v-2l-1.672-.781c-2.671-1.399-5.097-3.007-7.578-4.719l-2.703-1.844L478 268v-2l-2.5-.688c-4.231-1.586-7.752-3.82-11.5-6.312 1.838-4.416 4.736-6.333 8.5-9.113 2.52-1.851 2.52-1.851 4.813-3.93 6.338-5.514 6.338-5.514 11-5.082z" fill="#4DCCB3"/><path d="m336 163-1.828.367-2.422.508-2.39.492c-2.378.638-4.279 1.316-6.36 2.633l-1 3c-4.063 4.063-8.614 5.451-14 7v2l-3.188.813c-3.43 1.068-5.808 2.29-8.812 4.187l-2.563.938c-2.527.917-2.527.917-4.25 2.937-2.552 2.48-5.11 3.67-8.289 5.2-3.895 1.899-5.534 2.996-7.148 7.113L273 203h-3v2c-1.935 1.827-3.99 3.469-6.055 5.148-1.951 1.858-2.913 3.387-3.945 5.852h-2l-.75 1.625C256 220 256 220 254 222.938c-2.04 2.87-2.04 2.87-2.938 5.625-1.395 3.2-3.6 4.975-6.062 7.437-2.543 3.767-4.35 7.78-6 12l-.86 2.078c-2.264 5.524-4.325 11.112-6.327 16.734l-.794 2.21c-1.285 3.64-2.396 7.155-3.019 10.978h-2c-1.42 10.643-2.228 21.196-2.313 31.938l-.052 3.08c.004 6.412.898 12.06 2.665 18.226.941 3.707 1.188 7.358 1.45 11.162.242 2.515.708 4.831 1.313 7.281 1.023 4.202 1.094 7.997.937 12.313h2l.48 1.766c1.754 6.162 3.992 11.982 6.532 17.863C240 386 240 386 240 387h-17l-1.25-3.438a134.802 134.802 0 0 0-3.75-9c-3.851-8.596-6.005-17.377-8-26.562-.358-1.48-.718-2.959-1.078-4.438-6.793-29.073-3.898-62.166 10.194-88.766.923-1.875 1.604-3.75 2.259-5.733 1.464-4.08 3.698-7.383 6.164-10.926 1.6-2.272 1.6-2.272 3.274-5.387 2.063-3.697 4.431-7.19 6.812-10.688l1.202-1.795c1.006-1.46 2.084-2.869 3.173-4.267h2l.73-1.723c1.52-2.725 3.344-4.544 5.583-6.714l2.437-2.375L255 203c.94-.977 1.878-1.956 2.813-2.938 2.009-1.894 3.646-3.027 6.187-4.062v-2l4-1v-2c8.198-6.768 22.963-18 34-18v-2c26.507-10.637 26.507-10.637 34-8z" fill="#76D48E"/><path d="M232 248h3c.313 2.313.313 2.313 0 5l-5 3c-.168 2.333-.168 2.333 0 5-.95 2.354-1.95 4.689-3 7-.373 1.323-.73 2.652-1 4h-2l.07 2.484.055 3.266.07 3.234C224 284 224 284 222.996 285.884c-1.188 2.524-1.204 4.198-1.131 6.976l.06 2.912.098 3.119.076 3.211c.082 3.383.179 6.765.276 10.148.058 2.294.116 4.589.172 6.883.14 5.623.292 11.245.453 16.867h2l.586 3.36.789 4.39.383 2.21c.67 3.69 1.527 6.728 3.242 10.04.246 2.7.09 5.28 0 8h2l.48 1.766c1.754 6.162 3.992 11.982 6.532 17.863C240 386 240 386 240 387h-17l-1.25-3.438a134.802 134.802 0 0 0-3.75-9c-3.846-8.582-6.056-17.375-8-26.562l-.633-2.691c-1.847-8.938-4.566-25.911-.367-34.309.276-2.723.446-5.445.621-8.176.389-2.898 1.267-5.136 2.379-7.824v-3l-2 4c-.082-1.895-.14-3.791-.188-5.688l-.105-3.199c.33-3.512 1.406-5.186 3.293-8.113.557-2.195.557-2.195.688-4.313L214 271l6 2c.99-2.969 1.238-4.909 1-8l-2-2 2-1a63.021 63.021 0 0 0 1.813-3.875c1.791-3.765 3.407-5.235 7.187-7.125l2-3z" fill="#4BC2B7"/><path d="M520 376c1.259 3.582.71 5.892-.313 9.5-1.143 4.228-2.014 8.35-2.625 12.688-.728 4.663-1.988 8.454-4.074 12.671-1.003 2.173-1.613 4.272-2.238 6.579-2.86 8.854-10.652 15.687-16.867 22.335-1.725 2.04-2.746 3.837-3.883 6.227a141.135 141.135 0 0 1-5 5l-2.313 2.438c-2.854 2.722-5.863 4.91-9.113 7.132L472 462v3c1.647-.643 3.293-1.29 4.938-1.938l2.777-1.09c2.21-.772 2.21-.772 3.285-1.972 2.67-.141 5.324-.042 8 0l1-3c2.063-.688 2.063-.688 4-1v2l2.938.375L502 459l1 2h2l1.313 1.5c1.647 1.772 1.647 1.772 4.375 1.688L513 464l1 3 2 2v3l1.688.375c3.906 1.056 7.381 2.661 10.937 4.563 4.892 2.501 10.058 3.772 15.375 5.062v-3h-3c-2.125-6.625-2.125-6.625-1-10-.095-2.048-.095-2.048-1-4l-1.941-1.254c-4.136-3.508-4.304-9.61-5.059-14.746a118.66 118.66 0 0 1 0-12l2 1c.852 3.02.852 3.02 1.625 6.813l.79 3.769C537 452 537 452 537 456h2l3 10h2l1.25 2.625c1.697 3.429 1.697 3.429 3.938 6.625C551 478 551 478 551 480h2c1.625 1.313 1.625 1.313 3 3v3c-20.716.969-37.885-5.174-53.672-18.766C500 465 500 465 498 462c-3.066-.733-3.066-.733-6-1v2l-10 2v2c-3.773 2.282-7.847 2.84-12.125 3.563-5.082.736-5.082.736-9.875 2.437a74.6 74.6 0 0 1-4.57.098l-2.715-.01-2.84-.026-2.863-.013c-2.338-.012-4.675-.028-7.012-.049v-2l3.313-1.813c1.988-1.13 3.567-2.067 5.187-3.687 3.615-3.615 8.748-5.772 13.5-7.5v-2h2v-2c1.65-1.026 3.32-2.023 5-3l1.625-1.625C472 448 472 448 475 447c1.417-1.431 1.417-1.431 2.75-3.188 2.109-2.569 4.228-4.723 6.813-6.812 3.02-2.488 5.162-5.117 7.296-8.387C493 427 493 427 494.434 425.61c1.987-2.041 3.367-4.257 4.878-6.671l1.844-2.934a458.88 458.88 0 0 0 6.582-11.106C509 403 509 403 511 402c3.533-6.868 5.727-14.094 7.422-21.602C519 378 519 378 520 376z" fill="#18A0E3"/><path d="M488.313 240.875c3.46 1.056 4.92 1.984 7.687 4.125 1.322.73 2.656 1.438 4 2.125 13.71 7.54 26.132 18.79 36 30.875l2.25 2.625c1.963 2.664 3.321 5.393 4.75 8.375 1.634 2.77 3.314 5.51 5 8.25 2.303 4.093 3.684 8.252 5 12.75l.583 1.985c.67 2.294 1.326 4.591 1.98 6.89l.636 2.214c3.032 10.881 4.121 21.108 4.051 32.411l.023 3.762c-.015 7.463-.627 14.455-2.273 21.738h-1l.016-2.136c.02-3.246.034-6.493.047-9.739l.025-3.36c.017-5.939-.158-11.743-.871-17.642-.213-2.085-.25-4.092-.217-6.185 0-4.38-.438-8.601-1-12.938l-3 1 1-6h-2v-2h-2l.125-3c-.009-4.29-.809-7.912-2.125-12-2.715-2.307-2.715-2.307-5.188-1.625L540 304l.07-1.723c.122-5.186-.242-9.402-2.07-14.277l-2-1v-3l-4-1v-3l-1.875-.125L528 279a126.53 126.53 0 0 1-2-6l-3-2-3 1 1-4-3 1-2-5h-5l-.375-1.938L510 260l-2-1v-4l-8-1v-2l-4-2v-2c-1.437-.081-2.874-.14-4.313-.188l-2.425-.105c-2.778.36-3.556 1.125-5.262 3.293l-1 2h-3c-2.354 1.604-2.354 1.604-4 4 .14 2.707.14 2.707 1 5h5v2l2.125-.25c3.896.339 5.878 1.798 8.875 4.25.688 2.188.688 2.188 1 4l3 1c4 4.457 4 4.457 4 7h4l1 3v-3h2c.082 3.044-.024 5.072-1 8 .973 3.115.973 3.115 3 6l3.125 1.313L516 297c.578 2.26.69 4.38.8 6.707.284 3.262 1.431 5.572 3.2 8.293l3 1-1 3c.247 2.58.247 2.58.813 5.438l.566 3.214c.412 2.224.837 4.445 1.273 6.664l.598 3.184.578 2.906c.191 2.882-.305 4.184-1.828 6.594l-.262-2.098c-1.079-7.512-3.05-14.255-5.617-21.359-1.137-3.592-1.696-6.814-2.121-10.543l-3-1c-1.168-1.996-1.168-1.996-2.188-4.438l-1.042-2.433C509 300 509 300 509 298h-2c-1.297-1.941-1.297-1.941-2.75-4.563-3.315-5.713-6.707-10.742-12.25-14.437v-2l-1.672-.781c-2.671-1.399-5.097-3.007-7.578-4.719l-2.703-1.844L478 268v-2l-2.5-.688c-4.231-1.586-7.752-3.82-11.5-6.312 1.838-4.416 4.736-6.333 8.5-9.113 2.52-1.851 2.52-1.851 4.813-3.93 6.338-5.514 6.338-5.514 11-5.082z" fill="#93D77A"/><path d="M308 179c-1.056 3.284-2.617 4.572-5.5 6.25C299 187 299 187 297 187v2h-2v2a206.71 206.71 0 0 1-4.012 2.586c-3.517 2.502-6.576 5.539-9.718 8.488C279 204 279 204 276 205l-.875 2.25c-1.402 3.426-3.49 5.18-6.125 7.75a197.599 197.599 0 0 0-3 5l-3 3-1 3h-2c-.26.55-.518 1.1-.785 1.668-1.391 2.67-2.998 5.129-4.652 7.644-1.97 3.062-3.839 5.99-5.188 9.375-1.12 2.696-2.227 4.721-3.813 7.125-2.41 3.73-4.03 7.54-5.57 11.696C239 266 239 266 237.508 268.945c-6.56 13.29-7.088 28.548-8.508 43.055h-2v24c-3.956-7.911-4.355-15.107-4.313-23.813l.004-3.3c.115-9.83 1.382-19.263 3.309-28.887h2l.32-3.5c.56-4.464 1.89-8.34 3.555-12.5l.777-2c.517-1.33 1.037-2.658 1.561-3.984.812-2.08 1.59-4.171 2.365-6.266 2.83-7.57 6.557-17.173 13.422-21.75.708-1.65 1.37-3.319 2-5 .956-1.61 1.956-3.195 3-4.75l1.563-2.36C258 216 258 216 260 215l1.313-2.25c1.893-3.085 3.998-5.337 6.687-7.75h2v-2h3l.195-2.758c1.004-4.045 2.242-4.875 5.68-7.117l2.68-1.805C284 190 284 190 287 190l1-3c2.771-2.474 5.57-3.661 9-5l2.438-1.625c3.058-1.641 5.14-1.614 8.562-1.375z" fill="#C5D0CF"/><path d="M520 376c1.259 3.582.71 5.892-.313 9.5-1.143 4.228-2.014 8.35-2.625 12.688-.734 4.741-2.04 8.677-4.16 12.972-1.026 1.99-1.026 1.99-1.902 4.84h-2l-.75 2.25c-1.374 3.023-2.656 4.69-5.25 6.75h-4l-.75 2.375c-1.471 3.09-2.323 3.162-5.25 4.625a208.063 208.063 0 0 0-2 5l-3 1c-1.276 1.693-1.276 1.693-2.375 3.75-2.7 4.512-5.315 8.358-10.375 10.313L473 453l-.375 1.938L472 457c-3.191 1.596-6.353 2.794-9.75 3.875-2.929 1.464-3.81 3.246-5.25 6.125 3.72 1.24 6.97.904 10.813.625l2.119-.133c4.075-.274 8.052-.748 12.068-1.492-3.565 3.34-7.466 3.891-12.125 4.625-5.084.696-5.084.696-9.875 2.375a74.6 74.6 0 0 1-4.57.098l-2.715-.01-2.84-.026-2.863-.013c-2.338-.012-4.675-.028-7.012-.049v-2l3.313-1.813c1.988-1.13 3.567-2.067 5.187-3.687 3.615-3.615 8.748-5.772 13.5-7.5v-2h2v-2c1.65-1.026 3.32-2.023 5-3l1.625-1.625C472 448 472 448 475 447c1.417-1.431 1.417-1.431 2.75-3.188 2.109-2.569 4.228-4.723 6.813-6.812 3.02-2.488 5.162-5.117 7.296-8.387C493 427 493 427 494.434 425.61c1.987-2.041 3.367-4.257 4.878-6.671l1.844-2.934a458.88 458.88 0 0 0 6.582-11.106C509 403 509 403 511 402c3.533-6.868 5.727-14.094 7.422-21.602C519 378 519 378 520 376z" fill="#1688A4"/><path d="M243 222h3a84.76 84.76 0 0 1-2 7c-.23 1.333-.46 2.666-.688 4-1.257 5.92-4.246 10.843-7.312 16h-4l-2 3-2.375 1.125c-3.907 2.79-5.4 6.288-6.625 10.875-.028 2.873.382 5.167 1 8l-3 2v-2l-3 1v-2h-2l.188 3.688c.02 3.972-1.02 5.968-3.188 9.312-.453 3.804-.189 4.717 2 8-.355 2.841-1.093 5.28-2 8-.303 2.832-.508 5.664-.719 8.504C210 311 210 311 209 313a76.364 76.364 0 0 0-.316 4.352l-.127 2.578-.12 2.695-.13 2.719c-.107 2.218-.209 4.437-.307 6.656-7.425-12.833-1.91-39.083 1.765-52.869 2.474-8.395 5.244-16.58 9.345-24.329.937-1.897 1.645-3.8 2.327-5.802 1.57-4.396 3.967-8.142 6.563-12 1.125 3.75 1.125 3.75 0 6h3l-1-3c1.188-3.625 1.188-3.625 3-7a93.365 93.365 0 0 1 4-1c1.305-2.996 1.305-2.996 2-6h3l1-4zm2 4 2 1-3 2 1-3z" fill="#60CE93"/><path d="m336 163-1.828.367-2.422.508-2.39.492c-2.378.638-4.279 1.316-6.36 2.633l-1 3c-4.063 4.063-8.614 5.451-14 7v2l-3.188.813c-3.43 1.068-5.808 2.29-8.812 4.187l-2.563.938c-2.527.917-2.527.917-4.25 2.937-2.048 1.99-3.407 2.816-5.937 4-4.543 2.135-8.34 5.005-12.25 8.125l1-3-2.375.5C267 198 267 198 265 198c-2.51 1.255-2.871 2.5-4 5l-2-1v-2h2l1-4h2v-2l4-1v-2c8.198-6.768 22.963-18 34-18v-2c26.507-10.637 26.507-10.637 34-8z" fill="#8DCF8F"/><path d="M220 334h1c1.125 7.75 1.125 7.75 0 10h2l.813 3.625.554 2.453c.47 2.171.908 4.35 1.328 6.531l.743 3.766.683 3.586c.908 3.141 1.646 3.861 3.879 6.039.293 2.262.293 2.262.188 4.688l-.083 2.449L231 379l4 1v5l-10 1-.25-2.375L224 381l-2-.813-2-1.187c-.298-1.95-.58-3.907-.73-5.875-.329-2.588-1.352-4.678-2.438-7.031-3.49-8.785-4.287-17.737-3.832-27.094h1v5h3l1-5h2l-.563-1.938L219 335l1-1z" fill="#18A4E6"/><path d="m527 273 1 3 2.625-.438c4.379.568 5.445 2.119 8.063 5.5 1.717 2.536 3.041 5.155 4.312 7.938 1.634 2.77 3.314 5.51 5 8.25 2.303 4.093 3.684 8.252 5 12.75l.583 1.985c.67 2.294 1.326 4.591 1.98 6.89l.636 2.214c3.032 10.881 4.121 21.108 4.051 32.411l.023 3.762c-.015 7.463-.627 14.455-2.273 21.738h-1l.016-2.136c.02-3.246.034-6.493.047-9.739l.025-3.36c.017-5.939-.158-11.743-.871-17.642-.213-2.085-.25-4.092-.217-6.185 0-4.38-.438-8.601-1-12.938l-3 1 1-6h-2v-2h-2l.125-3c-.009-4.29-.809-7.912-2.125-12-2.715-2.307-2.715-2.307-5.188-1.625L540 304l.07-1.723c.122-5.186-.242-9.402-2.07-14.277l-2-1v-3l-4-1v-3l-1.938-.438C528 279 528 279 527 278a99.984 99.984 0 0 1 0-5z" fill="#84E286"/><path d="m532 437 2 1c.852 3.02.852 3.02 1.625 6.813l.79 3.769C537 452 537 452 537 456h2l3 10h2l1.25 2.625c1.697 3.429 1.697 3.429 3.938 6.625C551 478 551 478 551 480h2c1.625 1.313 1.625 1.313 3 3v3c-14.732.689-26.954-1.666-40-9l4-1v2c.687-.095 1.374-.19 2.082-.29.901-.11 1.802-.22 2.73-.335l2.708-.352C530 477 530 477 533 479c1.88.593 3.779 1.131 5.688 1.625.993.26 1.987.52 3.011.79L544 482v-3h-3c-2.125-6.625-2.125-6.625-1-10-.095-2.048-.095-2.048-1-4l-1.941-1.254c-4.136-3.508-4.304-9.61-5.059-14.746a118.66 118.66 0 0 1 0-12z" fill="#32A3E3"/><path d="m483 441 3 1c-6.097 8.821-6.097 8.821-11 11h-2l-.063 1.813C472 457 472 457 468.75 458.625a158.55 158.55 0 0 1-6.5 2.25c-2.929 1.464-3.81 3.246-5.25 6.125 3.72 1.24 6.97.904 10.813.625l2.119-.133c4.075-.274 8.052-.748 12.068-1.492-3.565 3.34-7.466 3.891-12.125 4.625-5.084.696-5.084.696-9.875 2.375a74.6 74.6 0 0 1-4.57.098l-2.715-.01-2.84-.026-2.863-.013c-2.338-.012-4.675-.028-7.012-.049v-2l3.313-1.813c1.988-1.13 3.567-2.067 5.187-3.687 3.615-3.615 8.748-5.772 13.5-7.5v-2h2v-2c1.65-1.026 3.32-2.023 5-3l1.625-1.625C472 448 472 448 475 447l1-2c2.314-.73 4.648-1.401 7-2v-2z" fill="#2480B7"/><path d="M249 225c.637 1.793.637 1.793 1 4-1.152 1.744-2.318 3.482-3.594 5.137-3.215 4.26-5.472 8.902-7.406 13.863l-.86 2.078c-2.264 5.524-4.325 11.112-6.327 16.734l-.794 2.21c-1.285 3.64-2.396 7.155-3.019 10.978h-2c-1.42 10.643-2.228 21.196-2.313 31.938l-.052 3.08c.004 6.407.895 12.051 2.659 18.213.954 3.74 1.25 7.436 1.522 11.277.236 3.196.692 6.326 1.184 9.492-2.905-2.905-2.713-6.211-3.125-10.125l-.262-2.285A829.443 829.443 0 0 1 225 336h-2c-1.25-4.937-1.26-9.875-1.387-14.938l-.077-2.902c-.052-2.02-.101-4.04-.149-6.061-.074-3.088-.165-6.176-.256-9.263-.049-1.966-.096-3.932-.143-5.899l-.088-2.79c-.09-4.566.01-7.976 2.1-12.147.445-2.662.445-2.662.625-5.313l.227-2.675L224 272h2l.313-2.438c.838-4.344 2.215-8.397 3.687-12.562l-2-1c4.75-3 4.75-3 7-3l.32-2.125c.773-3.269 2.023-5.888 3.555-8.875l1.555-3.063c2.978-5.57 2.978-5.57 4.57-7.937h2l2-6z" fill="#6DC5A1"/><path d="m509 416 2 1c-2.346 7.54-7.666 12.368-13 18-3.935 4.213-3.935 4.213-7.012 9.04-1.455 2.886-3.659 4.74-5.988 6.96l-2.563 2.625c-3.03 2.952-5.26 4.991-9.312 6.313-3.499 1.19-6.085 2.99-9.125 5.062h-2v2h-5c1.074-2.915 1.778-4.778 4-7 2.542-.781 5.103-1.4 7.688-2.023 2.859-1.208 3.088-2.224 4.312-4.977l3.25-1.688c4.835-2.523 7.034-6.747 9.75-11.312l2-3h3l.688-2.188c1.562-3.349 3.648-5.284 6.312-7.812l1-2 2.313-.813c3.857-1.704 5.825-4.463 7.687-8.187z" fill="#0689CA"/><path d="M490.563 426.938 493 427c-5.786 10.929-5.786 10.929-12 13l-1 2-1 2-3 1-1 3a132.038 132.038 0 0 1-5 3l-1.625 1.688C467 454 467 454 464 454v2h-2v2c-1.793 1.402-1.793 1.402-4.188 2.938l-2.496 1.613a233.828 233.828 0 0 1-5.066 3.074c-2.398 1.39-2.398 1.39-4.875 3.563C443 471 443 471 440 471v2c14.34-.072 14.34-.072 28.125-3.477 2.288-.638 3.65-.268 5.875.477-1.393.652-2.79 1.297-4.188 1.938l-2.355 1.09c-5.068 2.006-9.935 2.127-15.332 2.097l-2.066.012c-4.45-.009-8.669-.415-13.059-1.137l1-5h3l.746-1.836c1.475-2.545 2.775-3.36 5.317-4.789 3.053-1.618 3.053-1.618 4.937-4.375h3l1-2 4-1 1-2h4l2-4h3l.938-1.875L473 443h2v-2l4-1 .313-1.938L480 436l3-1v-2h4l-.063-2.438c.085-3.457.168-3.54 3.625-3.625z" fill="#010F23"/><path d="M483 269c4.892.42 6.766 2.443 10 6l2.75 2.625C498 280 498 280 499 283l2.375-.563C504 282 504 282 506 283v-3h2c.082 3.044-.024 5.072-1 8 .973 3.115.973 3.115 3 6l3.125 1.313L516 297c.578 2.26.69 4.38.8 6.707.284 3.262 1.431 5.572 3.2 8.293l3 1-1 3c.247 2.58.247 2.58.813 5.438l.566 3.214c.412 2.224.837 4.445 1.273 6.664l.598 3.184.578 2.906c.191 2.882-.305 4.184-1.828 6.594l-.262-2.098c-1.079-7.512-3.05-14.255-5.617-21.359-1.137-3.592-1.696-6.814-2.121-10.543l-3-1c-1.168-1.996-1.168-1.996-2.188-4.438l-1.042-2.433C509 300 509 300 509 298h-2c-1.297-1.941-1.297-1.941-2.75-4.563-3.315-5.713-6.707-10.742-12.25-14.437v-2l-1.688-.75c-2.736-1.48-4.989-3.185-7.312-5.25v-2z" fill="#96D887"/><path d="M220 312h1c.338 3.062.67 6.125 1 9.188.095.864.19 1.728.29 2.619.437 4.08.846 8.08.71 12.193h2l.586 3.36.789 4.39.383 2.21c.67 3.69 1.527 6.728 3.242 10.04.246 2.7.09 5.28 0 8h2l.48 1.766c1.754 6.162 3.992 11.982 6.532 17.863C240 386 240 386 240 387h-17l-2-7 3 1 1 5 3-1c2.333-.04 4.667-.044 7 0v-5l-4-1-.113-1.863-.2-2.45-.175-2.425c-.3-2.311-.3-2.311-1.918-3.57-2.505-2.658-2.97-5.98-3.781-9.442l-.538-2.094c-1.094-4.497-1.45-8.531-1.275-13.156h-2c-.09-1.03-.09-1.03-.184-2.082l-.254-2.73c-.08-.894-.162-1.787-.246-2.708-.25-2.607-.25-2.607-1.316-5.48-.352-6.407.044-12.665 1-19z" fill="#4AAAC3"/><path d="M212 359c2.124 2.124 2.477 3.076 3.313 5.875 1.563 4.947 3.547 9.664 5.601 14.426C222 382 222 382 223 386l84 1 1-2-1 4-2.313-.013c-7.21-.04-14.418-.071-21.628-.09-3.705-.011-7.411-.025-11.117-.048-3.58-.022-7.158-.034-10.737-.039-1.363-.003-2.726-.01-4.088-.021-1.915-.015-3.83-.016-5.744-.016l-3.298-.014c-3.31.26-5.967 1.103-9.075 2.241-5.477 1.025-11.01 2.034-16.125-.625-2.956-2.442-3.807-3.782-4.875-7.375l-2-1c-1.752-4.844-2.344-9.505-2.781-14.621-.26-2.822-.706-5.593-1.219-8.379z" fill="#14202D"/><path d="M210 308c1.063 1.813 1.063 1.813 2 4l-1 3 2 1v4l-2 1v7h3l-.563 3.063c-1.466 12.03.212 25.857 5.25 36.937 1.302 2.975 1.604 4.802 1.313 8-2.581-2.258-3.586-4.105-4.563-7.375-.707-2.326-1.401-4.545-2.394-6.766-4.392-12.04-5.416-25.774-5.418-38.484l-.004-2.923c.072-4.556.205-8.33 2.379-12.452z" fill="#3C97C1"/><path d="M553 394c1.583 3.165.33 5.744-.438 9.125l-.87 3.883L551 410h-2c-2.57 4.284-4.587 8.173-6 13h-3c-1.987 5.563-3.544 10.21-2 16l-.563 2.125L537 443l2 2c1.94 3.93 2.361 7.463 2.625 11.813l.227 3.519L542 463h2v3h-2a751.916 751.916 0 0 1-1.5-3.875l-.844-2.18C539 458 539 458 539 456h-2l-.84-3.902a22863.3 22863.3 0 0 0-1.097-5.036l-.553-2.576-.537-2.45-.492-2.27c-.327-1.778-.327-1.778-1.481-2.766-.983-5.616 1.455-8.796 4.492-13.242L538 422h2l1-4h2l.688-2.313c1.465-4.117 3.239-8.019 5.07-11.984 1.475-3.21 2.868-6.448 4.242-9.703z" fill="#092E35"/><path d="m555 316 3 1v3h2c1.645 12.223 2.219 24.365 2.25 36.688l.015 2.095c.046 7.723-.207 14.76-2.265 22.217l-.468 2.128c-.656 2.31-1.744 3.317-3.532 4.872.464-4.716 1.04-9.282 2.023-13.918 1.264-6.863 1.27-13.622 1.227-20.582l.023-3.762c-.019-9.074-1.137-17.41-3.398-26.175C555 320 555 320 555 316z" fill="#0D3525"/><path d="M235 260h1c.043 2 .04 4 0 6l-1 1a91.472 91.472 0 0 0-.063 5.063l.028 2.785L235 277l-2-2c-3.552 8.435-5.105 16.637-6.25 25.688l-.523 3.896c-.42 3.137-.829 6.276-1.227 9.416h-1c-.413-23.789-.413-23.789 2-34h2l.25-3.375c.63-5.24 2.636-9.827 4.75-14.625h2v-2z" fill="#C4E1E0"/><path d="M549 311h2l1 9h2c6.053 10.694 6.325 21.403 6.25 33.5l.023 3.762c-.015 7.463-.627 14.455-2.273 21.738h-1l.016-2.136c.02-3.246.034-6.493.047-9.739l.025-3.36c.017-5.939-.158-11.743-.871-17.642-.213-2.085-.25-4.092-.217-6.185 0-4.38-.438-8.601-1-12.938l-3 1 1-6h-2v-2h-2v-9z" fill="#6CC59E"/><path d="m214 268 3 1-1 4v-2h-2l.188 3.688c.02 3.972-1.02 5.968-3.188 9.312-.453 3.804-.189 4.717 2 8-.355 2.841-1.093 5.28-2 8-.303 2.832-.508 5.664-.719 8.504C210 311 210 311 209 313a76.364 76.364 0 0 0-.316 4.352l-.127 2.578-.12 2.695-.13 2.719c-.107 2.218-.209 4.437-.307 6.656-2.781-4.807-2.342-9.45-2.313-14.875l.015-3.22c.23-15.897 1.959-31.223 8.298-45.905z" fill="#509592"/><path d="M545 471c3.188 2.125 4.25 3.665 6 7v2h2c1.625 1.313 1.625 1.313 3 3v3c-14.732.689-26.954-1.666-40-9l4-1v2l2.047-.324 2.703-.363 2.672-.387c3.161.09 4.349.881 6.578 3.074v2h6v2h11l-1-5-4-1c-1-4.75-1-4.75-1-7z" fill="#2C86BA"/><path d="M228 237c1.212 3.75.505 5.46-1.176 9.012-1.183 2.854-1.683 5.774-2.281 8.797C224 257 224 257 222.313 260.563c-1.684 4.41-1.197 6.857-.313 11.437l-3 2v-2h-2c-1.783-2.622-1.999-4.034-1.875-7.25.86-3.686 2.066-6.416 3.84-9.715 1.009-1.984 1.752-3.932 2.472-6.035 1.57-4.396 3.967-8.142 6.563-12z" fill="#6CBA96"/><path d="M308 179c-1.056 3.284-2.617 4.572-5.5 6.25C299 187 299 187 297 187v2h-2l-1 2v-2c-4.846 2.982-8.886 6.512-13.047 10.39C279 201 279 201 277 201v-2h2v-2h2l1-4h2v-3h3l1-3c2.771-2.474 5.57-3.661 9-5l2.438-1.625c3.058-1.641 5.14-1.614 8.562-1.375z" fill="#D5E8D0"/><path d="m510 295 5 1a97.3 97.3 0 0 1 1.43 6.254l.445 2.308.43 2.317c.8 2.443 1.73 3.496 3.695 5.121l2 1-1 3c.247 2.58.247 2.58.813 5.438l.566 3.214c.412 2.224.837 4.445 1.273 6.664l.598 3.184.578 2.906c.191 2.882-.305 4.184-1.828 6.594l-.262-2.098c-1.248-8.695-3.82-16.665-6.738-24.902a240.086 240.086 0 0 1-5.352-17.715c-.573-2.29-.573-2.29-1.648-4.285z" fill="#79D395"/><path d="M294 189c-1.233 3.7-2.677 4.538-5.75 6.875-2.914 2.256-5.712 4.45-8.25 7.125l-2 2h-2l-1 3c-2.063.688-2.063.688-4 1v-2l-5 1 2-3h2v-2h3v-2.625c1.438-4.852 4.708-6.9 9-9.375h2v2l-2 1-1 3h-2v2h-2v2l2.266-1.863 2.984-2.45c.975-.8 1.95-1.6 2.953-2.425C291.71 189 291.71 189 294 189z" fill="#CCD0CC"/><path d="M540 412c1.238 3.576.75 6.337 0 10h-2l-.813 2.25C536 427 536 427 534.47 428.625c-2.2 3.558-2.037 7.015-2.157 11.125l-.103 2.402A557.553 557.553 0 0 0 532 448h-1a874.271 874.271 0 0 1-1.5-6.125l-.844-3.445c-.804-4.201-1.474-7.706.403-11.66l1.379-1.957c1.646-2.379 2.633-4.027 3.562-6.813l1.938-.375L538 417c1.297-2.49 1.297-2.49 2-5z" fill="#42B4DE"/><path d="M522 342h1c.598 28.705.598 28.705-5 42a138.141 138.141 0 0 0-.875 4.375c-1.08 5.337-3.529 9.879-6.125 14.625-1.106-3.317-.967-3.768.188-6.875 3.05-8.576 5.727-17.263 7.812-26.125h2l-.492-2.14c-.52-2.931-.641-5.636-.633-8.61l-.008-2.922C520 354 520 354 521 353c.234-1.849.413-3.705.563-5.563l.253-3.066L522 342z" fill="#031D1E"/><path d="m226 360 2 1c.73 2.314 1.401 4.648 2 7h3c2.578 6.268 4.92 12.55 7 19h-17l-2-7 3 1 1 5 3-1c2.333-.04 4.667-.044 7 0v-5l-4-1-.113-1.863-.2-2.45-.175-2.425c-.605-2.674-1.575-3.405-3.512-5.262-.688-3.688-.688-3.688-1-7z" fill="#3298D0"/><path d="m271 196 2 1v1l1 2-1 3h-3v2c-1.935 1.827-3.99 3.469-6.055 5.148-1.951 1.858-2.913 3.387-3.945 5.852h-2l-.75 1.625C256 220 256 220 254 222.938c-2.05 2.919-2.05 2.919-3.125 5.875C250 231 250 231 248 232c.477-1.67.957-3.34 1.453-5.004.643-2.228.643-2.228 1.172-5.496 1.683-4.284 3.885-5.911 7.414-8.727 1.978-1.789 3.008-3.29 4.211-5.648 1.75-3.125 1.75-3.125 4-4.063L268 203l.375-2.375C269 198 269 198 271 196z" fill="#90D1A0"/><path d="M492 461c2.75-.313 2.75-.313 6 0a377.731 377.731 0 0 1 4 5c2.588 2.078 5.236 4.021 7.93 5.957 1.37.996 2.722 2.017 4.07 3.043v1h-6l-1-3-6-1v-3h-3v-2l-16-1c3.445-2.296 5.938-2.54 10-3v-2z" fill="#062542"/><path d="M223 284c1.969 3.252 2.134 5.235 1.64 8.973-.692 6.17-.86 12.26-.89 18.464l-.063 3.159c-.032 6.574.782 12.332 2.605 18.653.961 3.733 1.252 7.423 1.524 11.259.236 3.196.692 6.326 1.184 9.492-2.905-2.905-2.713-6.211-3.125-10.125l-.262-2.285A829.443 829.443 0 0 1 225 336h-2c-1.259-4.958-1.26-9.924-1.387-15.008l-.077-2.916c-.052-2.03-.101-4.058-.149-6.087-.074-3.11-.165-6.22-.256-9.329-.049-1.972-.096-3.945-.143-5.918l-.088-2.822-.051-2.62-.058-2.302C221 287 221 287 223 284z" fill="#82C1C6"/><path d="M509 255c8.642 1.29 16.424 11.191 22.516 16.957C533 274 533 274 532.734 276.262L532 278v-2h-4v-3c-3.868-1.875-3.868-1.875-8-1l1-4-3 1-3-10h-3v-2l-3-1v-1z" fill="#93DB88"/><path d="M540 465c2 3 2 3 2 5h3l.25 3.375L546 477c1.967 1.15 1.967 1.15 4 2l1 5h-11v-2h-6v-2c7.75.875 7.75.875 10 2v-3h-3c-2.125-6.625-2.125-6.625-1-10v-4z" fill="#24A3E4"/><path d="m340 163-2.875 1.875c-3.07 1.945-3.07 1.945-5.125 4.125-2.015.455-4.031.91-6.047 1.363-2.683.875-4.016 2.635-5.953 4.637-3.25.75-3.25.75-6 1v2h-6c3.765-3.04 7.836-5.123 12.313-6.938 1.897-.923 1.897-.923 2.187-3.062.5-2 .5-2 2.25-3.05 2.248-.949 4.373-1.596 6.75-2.137l2.281-.543c2.367-.288 3.964.008 6.219.73z" fill="#E0F8D5"/><path d="m481 262 1 2 2.125-.25c3.896.339 5.878 1.798 8.875 4.25.688 2.188.688 2.188 1 4l3 1c4 4.457 4 4.457 4 7h4v2l-6 1c-3-3.75-3-3.75-3-6l-1.75-.813c-2.346-1.238-4.302-2.378-6.25-4.187v-4l-2.188-.875L478 264l3-2z" fill="#87EC7B"/><path d="M210 308c1.063 1.813 1.063 1.813 2 4l-1 3 2 1v4l-2 1 1 25-1-4h-2c-1.252-5.838-1.184-11.622-1.188-17.563l-.037-3.115-.005-3.013-.013-2.725c.267-2.84 1.068-4.999 2.243-7.584z" fill="#48A6BE"/><path d="m483 441 3 1c-6.097 8.821-6.097 8.821-11 11h-2l-.063 1.813C472 457 472 457 468.438 458.75L465 460c0-3 0-3 2.125-5.25L470 452a587.96 587.96 0 0 0 2.875-3.688c3.034-3.634 5.52-4.483 10.125-5.312v-2z" fill="#147DBB"/><path d="m535 430 2 1c.81 4.49 1.183 7.607 0 12l2 2c1.94 3.93 2.361 7.463 2.625 11.813l.227 3.519L542 463h2v3h-2a751.916 751.916 0 0 1-1.5-3.875l-.844-2.18C539 458 539 458 539 456h-2c-4.454-18.638-4.454-18.638-2-26z" fill="#07233A"/><path d="m552 389 2 1c-2.43 9.93-5.512 19.304-11 28l-3 1c.141-1.459.288-2.917.438-4.375.08-.812.162-1.624.246-2.46C541 410 541 410 542 408h2l.586-1.934.789-2.503.773-2.497C547 399 547 399 549 398c.907-2.113.907-2.113 1.625-4.563.26-.826.52-1.652.79-2.503L552 389z" fill="#55BDB9"/><path d="M271 206c2 2 2 2 3 4l-2.313 2.188c-2.417 2.53-3.95 4.813-5.687 7.812l-3 3-1 3-2-1c-.348-4.877.583-7.77 3-12h2l.188-2.375L266 208c2.563-1.313 2.563-1.313 5-2z" fill="#CFD3D0"/><path d="m229 350 1 3h2c1.23 3.931 2.43 7.87 3.625 11.813l1.063 3.392.976 3.252.92 3C239 377 239 377 237 380c-3.085-5.395-4.556-9.79-5-16h-2l-1-14z" fill="#E4FCFE"/><path d="M482 239h10l1 3c1.436.196 2.874.381 4.313.563l2.425.316c2.43.269 2.43.269 5.262-.879l-1 5h2v2l3 1c1.188 2.063 1.188 2.063 2 4-3.977-1.326-6.907-3.307-10.234-5.766-2.453-1.715-5.058-2.97-7.766-4.234l-1.938-1.188c-3.024-1.191-5.85-.936-9.062-.812v-3z" fill="#142C0F"/><path d="m336 163-1.828.367-2.422.508-2.39.492c-2.356.632-4.268 1.383-6.36 2.633l-1 2-7-1-1 4h-4v2l-8-1v-2c26.507-10.637 26.507-10.637 34-8z" fill="#80B77A"/><path d="m494 246-1 2-2.813-.188c-3.142-.111-3.142-.111-5 1.563-1.257 1.626-1.257 1.626-2.187 3.625h-3l-3 2c-1.125-3.75-1.125-3.75 0-6 5.999-3.807 10.153-6.326 17-3zm-20 9 3 1-1 5-5-1 1-3h2v-2z" fill="#8DEB68"/><path d="M521 330c3.173 3.173 2.45 7.016 2.656 11.348L524 344l2 1c.3 10.527-.588 20.587-2 31h-1l-.076-2.93c-.095-3.646-.195-7.292-.296-10.937-.043-1.567-.085-3.134-.125-4.701-.238-9.176-.594-18.293-1.503-27.432z" fill="#61AD92"/><path d="M280 468c2.063.438 2.063.438 4 1v2h-72v-1l2.537-.031c7.873-.098 15.746-.2 23.618-.308 4.048-.056 8.096-.109 12.144-.158 3.903-.048 7.807-.1 11.71-.156 1.492-.02 2.985-.04 4.477-.056 2.084-.024 4.167-.054 6.25-.086 1.188-.015 2.376-.03 3.6-.047 2.585.143 2.585.143 3.664-1.158z" fill="#F5F5F5"/><path d="M503 461h2l1.313 1.5c1.647 1.772 1.647 1.772 4.375 1.688L513 464l1 3 2 2v3l1.688.375c2.533.685 4.891 1.616 7.312 2.625v3l-2 1-3-1v-2l-2.375-.25C515 475 515 475 513.687 473.125 513 471 513 471 513 468l-9-3v-2l-2-1 1-1z" fill="#2EA6E9"/><path d="M494 247c6.216.802 12.769 3.284 17 8l-1 1 2 1v2h3l1 4-5 1-.375-1.938L510 260l-2-1v-4l-8-1v-2l-4-2v-2l-2-1z" fill="#8FE574"/><path d="M497 424v6l-1.875.688c-2.747 1.696-2.991 3.365-4.125 6.312l-3 1-2 3h-3v2l-5 2c1.673-3.347 3.506-5.55 6.375-7.875 3.106-2.536 5.299-5.164 7.484-8.512C495.121 424 495.121 424 497 424z" fill="#266991"/><path d="M504 423c0 3 0 3-2 6h-2l-.875 1.813C498 433 498 433 496 436h-3l-.438 1.938C492 440 492 440 491 441c-1.666.04-3.334.043-5 0l2-4h3l.688-2.188c1.562-3.349 3.648-5.284 6.312-7.812l1-2a78.037 78.037 0 0 1 5-2z" fill="#18B"/><path d="m498 461 6 2v2l3.375.938C511 467 511 467 513 468c.852 1.848.852 1.848 1.625 4.063.39 1.1.39 1.1.79 2.222.192.566.386 1.132.585 1.715-4.243-1.438-7.235-3.54-10.688-6.375l-2.886-2.336c-2.2-2.076-3.341-3.51-4.426-6.289z" fill="#308EC7"/><path d="M490.563 426.938 493 427c-5.786 10.929-5.786 10.929-12 13v2h-5v2l-3-1h2v-2l4-1 .313-1.938L480 436l3-1v-2h4l-.063-2.438c.085-3.457.168-3.54 3.625-3.625z" fill="#021120"/><path d="M508 298c3.058 2.718 3.941 5.244 5.156 9.063.721 2.002.721 2.002 2.305 3.312 5.722 6.042 6.22 17.686 6.539 25.625l-2-1c-.273-1.82-.273-1.82-.375-4.125-.288-3.37-.797-5.59-2.625-8.438-2.381-4.092-2.673-6.773-3-11.437h-2v-3h-2l-1-5h-1v-5z" fill="#163A1E"/><path d="M474 470c-1.393.652-2.79 1.297-4.188 1.938l-2.355 1.09c-5.088 2.013-9.977 2.127-15.394 2.097l-2.092.012c-4.095-.008-7.955-.345-11.971-1.137l1-3 1 2c14.34-.072 14.34-.072 28.125-3.477 2.288-.638 3.65-.268 5.875.477z" fill="#09273E"/><path d="M545 471c3.188 2.125 4.25 3.665 6 7v2h2c1.625 1.313 1.625 1.313 3 3v3h-16v-2h11l-1-5-4-1c-1-4.75-1-4.75-1-7z" fill="#3E87AF"/><path d="M223 344h2l1 8h2c2.6 3.9 2.15 7.474 2 12h2v4h-2c-7.331-15.725-7.331-15.725-7-24z" fill="#359FCC"/><path d="M233 274c1.311 3.688.687 6.323-.215 10.078l-.83 3.516-.893 3.656-.88 3.703c-.72 3.018-1.447 6.033-2.182 9.047h-1c-.379-11.07 1.048-20.049 6-30z" fill="#C5CACD"/><path d="M207 332c2.048 3.83 2.862 7.631 3.625 11.875l.406 2.105c.75 4.058 1.111 7.897.969 12.02-3.875-2.625-3.875-2.625-5-6a79.866 79.866 0 0 1-.098-4.668l.01-2.705.025-2.815.014-2.85c.012-2.32.028-4.641.049-6.962z" fill="#0D2D45"/><path d="M205 307h1c.677 12.346 1.157 24.634 1 37h-1c-1.786-7.703-2.193-15.12-2.188-23l-.001-2.788c.031-3.922.107-7.42 1.189-11.212z" fill="#02121B"/><path d="M214 271h2l-.063 2.813c-.095 3.21-.095 3.21 1.063 6.187l-2 2c-.377 2.336-.505 4.643-.656 7.004L214 291l-2 1c-1.134 2.017-1.134 2.017-2 4-.082-1.895-.14-3.791-.188-5.688l-.105-3.199c.33-3.512 1.406-5.186 3.293-8.113.557-2.195.557-2.195.688-4.313L214 271z" fill="#67D1B3"/><path d="m241 222 2 1-1 3h-3l-.438 1.875C238 230 238 230 237 232l-1.984.836c-2.212.995-2.212.995-2.844 3.328l-.422 2.461-.453 2.477L231 243h-3c1.008-7.48 2.552-13.473 8.66-18.316 1.408-.955 2.87-1.83 4.34-2.684z" fill="#75C999"/><path d="m509 416 2 1c-2.346 7.54-7.666 12.368-13 18-3.14 3.473-6.007 6.729-8 11h-2c1.332-3.587 2.77-6.877 5-10h3l.824-1.8c1.147-2.147 2.334-3.62 3.988-5.387 3.45-3.9 5.823-8.197 8.188-12.813z" fill="#1DA3DE"/><path d="m265 208 1 2-1 3h-2v4h-2l-.813 2.25c-1.14 2.64-2.28 4.606-4.187 6.75h-2v2l-3 1c.638-3.44 1.987-5.802 3.938-8.688l1.59-2.386C258 216 258 216 260 215a264.271 264.271 0 0 0 3-5l2-2z" fill="#BDD8C3"/><path d="m476 442 4 1-1.938.813c-2.393 1.074-2.393 1.074-3.062 4.187a132.038 132.038 0 0 1-5 3l-1.625 1.688C467 454 467 454 464 454v2h-2v2l-4 1 3-6h4l2-4h3l.75-1.938C472 445 472 445 474.125 444.25L476 444v-2z" fill="#051C36"/><path d="m490 466 2 2-2.938.813c-2.89.81-5.681 1.78-8.5 2.812-4.357 1.49-7.98 1.625-12.562 1.375 6.483-5.19 13.705-7.889 22-7z" fill="#010E22"/><path d="m298 176-2 1 2 2h-3l1 3h-2l-1 2-1.5-.5c-3.534-.707-6.897-.56-10.5-.5 2.358-2.629 4.801-4.146 7.938-5.75l2.59-1.36c2.705-.974 3.829-.896 6.472.11z" fill="#79B97B"/><path d="m455 461 2 1a415.164 415.164 0 0 1-3.813 3.5l-2.144 1.969C449 469 449 469 446 469l1 2h15c-2 2-2 2-4.063 2.227l-2.507-.032-2.715-.02-2.84-.05-2.863-.027A936.327 936.327 0 0 1 440 473v-2l3.313-1.813c2.638-1.501 4.587-2.991 6.687-5.187 2.563-1.75 2.563-1.75 5-3z" fill="#33688F"/><path d="M519 386c2 2 2 2 2.313 5.188-.282 3.436-.912 5.768-2.391 8.851-1.473 3.134-2.636 6.391-3.86 9.629-1.094 2.402-2.406 4.285-4.062 6.332.838-4.349 1.722-8.363 3.5-12.438 1.579-3.749 2.355-7.245 3.07-11.23.395-2.14.879-4.228 1.43-6.332z" fill="#37B5C4"/><path d="M471.563 248.938 474 249c-2.853 2.932-5.65 5.643-9 8l.563 1.875C466 261 466 261 465 263l-5-2 2-1-.625-1.75c-.375-2.25-.375-2.25.25-4.375 1.791-2.443 3.546-2.932 6.375-3.875 1-1 1-1 3.563-1.063z" fill="#101C0F"/><path d="M248 210h1c.475 3.994.2 5.689-2 9.125-3.076 3.368-6.848 5.124-11 6.875a65.457 65.457 0 0 1 6-10h2l.875-1.875C246 212 246 212 248 210z" fill="#78B88B"/><path d="M284 191v2l-2 1-1 3h-2v2a141.135 141.135 0 0 1-5 5l-1.5 1.75c-2.033 1.694-3.918 1.901-6.5 2.25l2-3h2v-2h3v-2.625c1.344-4.536 5.889-9.375 11-9.375z" fill="#C0E1C4"/><path d="M283 188v2h-2v3c-1.969 1.824-1.969 1.824-4.5 3.688l-2.531 1.886L272 200c-.878-3.097-.994-4.906 0-8h2v-2c3.371-1.498 5.204-2 9-2z" fill="#7ED282"/><path d="M509 403c.645 1.79.645 1.79 1 4-.926 1.71-.926 1.71-2.313 3.375-2.396 3.092-3.593 5.839-4.687 9.625a86.75 86.75 0 0 1-2 4h-4c1.285-3.854 3.215-6.77 5.625-10.02 2.421-3.487 4.38-7.237 6.375-10.98z" fill="#1A5573"/><path d="m223 255 1 2c-.938 2.625-.938 2.625-2 5-.625-1.813-.625-1.813-1-4l2-3zm-6 7 4 1 1 9-3 2v-2h-2c-2.215-5.415-2.215-5.415-1.125-8.375L217 262z" fill="#65D1A7"/><path d="M547 304h3c6.71 12.526 6.71 12.526 5.543 18.234L555 324l-1-4h-2l-1-9h-3l-1-7z" fill="#81C896"/><path d="m315 168 7 1c-4.05 4.833-7.967 6.383-14 8v2h-4v-2l6-2v-3h4l1-4z" fill="#AFE3A4"/><path d="M235 260h1c.043 2 .04 4 0 6l-1 1a91.472 91.472 0 0 0-.063 5.063l.028 2.785L235 277l-2-2-2 3c-1.02-6.214-1.63-10.484 2-16h2v-2z" fill="#C8DAD9"/><path d="m510 295 5 1c.91 3.578 1.71 7.175 2.5 10.781.47 2.082.974 4.151 1.5 6.219l-2 1c-2.948-6.195-5.178-12.388-7-19z" fill="#82EC90"/><path d="m468 261 10 5v2l2.25.75c2.951 1.341 4.598 2.86 6.75 5.25h-5l-1-3h-2v-2l-3 1-1-4h-2v2l-3-1 1-2h-2l-1-4z" fill="#183513"/><path d="M472 251c3 1 3 1 5 2v2h-3v2h-2l-1 3-5-1c1.248-3.847 2.387-6.03 6-8z" fill="#94E379"/><path d="m495 456 1 2c3.03.658 3.03.658 6 1v3h-21c2-2 2-2 3.945-2.195L491 460l1-3 3-1z" fill="#27AAE9"/><path d="M504 291h4c4.925 5.224 5.659 12.153 7 19-2.677-1.339-2.951-2.72-4.125-5.438l-1.07-2.433C509 300 509 300 509 298h-2l-3-7z" fill="#85C88B"/><path d="m555 316 3 1v3h2l1 14c-2-4-2-4-2-6h-2c-1.138-4.266-2-7.565-2-12z" fill="#102B18"/><path d="M543 293c3.336 1.112 3.584 1.463 5.188 4.375l1.042 1.836C550 301 550 301 550 304c-2.375.188-2.375.188-5 0-2.68-4.019-2.156-6.242-2-11z" fill="#81D38D"/><path d="m214 268 3 1-1 4v-2h-2l.188 3.688c.148 2.924-.082 4.136-1.625 6.687-1.805 3.032-2.254 5.46-2.75 8.938-.16 1.068-.318 2.137-.481 3.238L209 296h-1c-.36-10.061 2.763-18.572 6-28z" fill="#55917F"/><path d="M234 254h2a227.39 227.39 0 0 1-6.133 18.457c-.854 2.504-1.41 4.94-1.867 7.543h-1c.658-9.726 2.962-17.18 7-26z" fill="#8BC7B4"/><path d="M536 419h4v3h-2l-.75 2.063c-1.492 3.506-3.318 6.653-5.25 9.937h-2v-4h2l.313-2.688c.713-3.435 1.508-5.569 3.687-8.312z" fill="#56B0C2"/><path d="M520 376c2.62 7.438-2.188 17.037-5 24h-2l-1 2c.615-2.647 1.371-4.945 2.375-7.5 1.752-4.553 2.86-9.218 3.977-13.96C519 378 519 378 520 376z" fill="#236E74"/><path d="M431 368c3.27.564 4.826 1.5 7 4-2.076.553-3.844 1-6 1a140.075 140.075 0 0 0-5 5l-5 5-2-1 1.39-1.285c4.134-3.95 7.012-7.622 9.61-12.715z" fill="#D8D8D8"/><path d="M555 388h1c.567 13.964.567 13.964-3 20l-2 1c.46-7.307 1.883-13.998 4-21z" fill="#051114"/><path d="m226 269 2 1c-.483 6.205-1.333 12-3 18h-1c-.71-5.53-1.303-10.5 0-16h2v-3z" fill="#71C0AC"/><path d="m481 262 1 2 2.125-.25c3.931.342 5.909 1.698 8.875 4.25.375 2.75.375 2.75 0 5l-5-1v-4l-2.188-.875L478 264l3-2z" fill="#84EF66"/><path d="m460 237 1 2c-2 2-2 2-4 3l-1 2-2.313.875c-3.02 1.265-4.426 2.793-6.687 5.125-2.625 1.813-2.625 1.813-5 3l-2-1c6.233-5.653 13.046-10.294 20-15z" fill="#464647"/><path d="M212 359c2.124 2.124 2.477 3.076 3.313 5.875 1.58 5.036 3.654 9.8 5.796 14.621L222 382l-1 2c-4.927-4.927-7.279-14.297-9-21v-4z" fill="#0E3D66"/><path d="m532 437 2 1c.922 3.02.922 3.02 1.75 6.813l.86 3.769c.39 3.419.313 4.652-1.61 7.418l-.375-2.938L534 450l-2-1v-12z" fill="#4194BC"/><path d="m336 163-1.828.367-2.422.508-2.39.492c-2.356.632-4.268 1.383-6.36 2.633l-1 2-9-1c3.496-2.33 6.92-3.191 10.938-4.188l2.17-.576c3.695-.928 6.258-1.358 9.892-.236z" fill="#6E8F64"/><path d="M249 225c.637 1.793.637 1.793 1 4-1.152 1.744-2.318 3.482-3.594 5.137-3.194 4.232-5.594 8.88-7.406 13.863-1-2-1-2 .188-5.688 1.585-4.014 3.582-7.622 5.812-11.312h2l2-6z" fill="#80C8A1"/><path d="M522 342h1c.027 2.875.047 5.75.063 8.625l.025 2.45c.018 4.428-.192 8.564-1.088 12.925l-2-1a920.276 920.276 0 0 1-.063-5.438l-.035-3.058C520 354 520 354 521 353c.234-1.849.413-3.705.563-5.563l.253-3.066L522 342z" fill="#0C261A"/><path d="M227 245c2.375-.188 2.375-.188 5 0l2 3c-2.773 3.08-5.063 4.688-9 6 .486-3.123.999-5.996 2-9z" fill="#57D398"/><path d="m289 176 1 2c-1.436.816-2.874 1.627-4.313 2.438l-2.425 1.37C281 183 281 183 278 184v-5h3v-2c2.709-1.354 5.01-1.065 8-1z" fill="#061906"/><path d="M280 468c2.063.438 2.063.438 4 1v2h-32v-1l2.463-.076c3.658-.115 7.316-.238 10.975-.361l3.876-.12 3.682-.127 3.412-.11c2.52.082 2.52.082 3.592-1.206z" fill="#DDD"/><path d="m542 408 4 1c-.432 4.752-1.328 6.92-5 10-1.417-4.25-.193-6.719 1-11z" fill="#51B9B8"/><path d="m543 290 2 1-2 13h-3v-11l3-1v-2z" fill="#6DD87E"/><path d="m540 471 3 1a252.441 252.441 0 0 1 3 7l2 1v2h-4v-3h-3l-2-7 1-1z" fill="#0FA5ED"/><path d="M467 460c-1.375 2.5-1.375 2.5-3 5h-2v2h-5c1.074-2.915 1.778-4.778 4-7 3.556-1.222 3.556-1.222 6 0z" fill="#0D83CB"/><path d="M515 386h2c-.423 6.491-2.911 11.335-6 17-1.135-3.405-.86-4.12.313-7.375l.851-2.395c.91-2.426 1.834-4.84 2.836-7.23z" fill="#08303D"/><path d="m220 372 .813 1.938c1.074 2.393 1.074 2.393 4.187 3.062 1.125 2.875 1.125 2.875 2 6l1 3h-3l-.25-2.375c-.478-2.772-.478-2.772-2.813-3.938L220 379v-7z" fill="#30A4E7"/><path d="m271 196 2 1v1l1 2-1 3h-3v2h-6l1-2h3l.375-2.375C269 198 269 198 271 196z" fill="#8DD99A"/><path d="M340 163c-4.002 2.789-7.202 3.41-12 4-2.014.623-4.02 1.276-6 2 1-3 1-3 2.781-4.113a43.972 43.972 0 0 1 6.719-2.075l2.281-.542c2.367-.288 3.964.008 6.219.73z" fill="#A5C696"/><path d="M445 475h15c-3.872 2.582-5.535 3.121-10.125 3.063l-2.758-.028L445 478v-3z" fill="#030512"/><path d="m472 448 2 1a376.146 376.146 0 0 1-2.875 3l-1.617 1.688C468 455 468 455 466 455l-2 5-7 1c1.375-1.5 1.375-1.5 3-3h2v-2h2v-2c1.65-1.026 3.32-2.023 5-3 1.751-1.582 1.751-1.582 3-3z" fill="#2D6A98"/><path d="M553 394c1.583 3.165.33 5.744-.438 9.125l-.87 3.883L551 410h-2l-1 2h-2c1.557-6.37 4.198-12.086 7-18z" fill="#163D3F"/><path d="M230 375v5h2l-1 4-5-1c-.75-1.75-.75-1.75-1-4 3.333-4 3.333-4 5-4z" fill="#12A5F9"/><path d="M326 232v2l-3.375 1.313c-3.8 1.386-3.8 1.386-5.625 4.687h-2v2l-3-1h-3c4.202-3.782 11.094-9 17-9z" fill="#555"/><path d="m514 476 15 6v1c-5.538.286-9.248.245-14-3-.875-2.188-.875-2.188-1-4z" fill="#01192F"/><path d="M503 461h2l1.313 1.5c1.647 1.772 1.647 1.772 4.375 1.688L513 464l1 3 2 2v3l-3-1v-3l-9-3v-2l-2-1 1-1z" fill="#1DAAF2"/><path d="m486 446 2 1c-3.094 5.414-6.883 8.498-12 12l-2-1c3.678-4.526 7.41-8.394 12-12z" fill="#14A4EA"/><path d="m495 431 1 2-1 3h-2l-.438 1.938C492 440 492 440 491 441c-1.666.04-3.334.043-5 0l2-4h3l.875-2.438C493 432 493 432 495 431z" fill="#0C7EB9"/><path d="M511 402c1 2 1 2 .223 4.82l-1.16 3.305-1.153 3.32L508 416h-2v3h-2c-.399-2.63-.357-4.414 1.043-6.715a269.155 269.155 0 0 1 2.71-3.57c1.53-2.103 2.428-4.257 3.247-6.715z" fill="#116B87"/><path d="M511 254c2.313-.188 2.313-.188 5 0 1.688 1.438 1.688 1.438 3 3l2 1v2h2l-1 4a2020.628 2020.628 0 0 1-5.5-4.438l-3.094-2.496L511 255v-1z" fill="#1D3917"/><path d="m453 465 2 1-2 2 3 2c-2 2-2 2-5.625 2.125L447 472l-1-3c5.273-3.223 5.273-3.223 7-4z" fill="#237AB4"/><path d="M506 406c0 5.84-4.77 11.27-8 16-.625-1.813-.625-1.813-1-4l2-3h2l.25-2.25c.89-3.262 2.235-4.56 4.75-6.75z" fill="#01101E"/><path d="m221 380 3 1 1 5 14-1 1 2h-17l-2-7z" fill="#387CA9"/><path d="M208 355c3.165 1.794 3.96 2.893 5.25 6.375.628 3.035.936 5.55.75 8.625l-2-1v-4h-2v-5h-2v-5z" fill="#010B1E"/><path d="m212 327 2 1-.5 3.313c-.666 5.226-.587 10.427-.5 15.687h-1c-2.623-14.754-2.623-14.754 0-20z" fill="#2BA9CD"/><path d="m483 441 3 1c-2.923 4.272-5.04 5.657-10 7a86.75 86.75 0 0 0-4 2c2.222-4.089 3.294-5.741 7.75-7.375L483 443v-2z" fill="#1E7AAA"/><path d="M540 412c.934 3.01 1.044 3.867 0 7l-1.934.438c-2.22.356-2.22.356-3.226 2.375l-.903 2.187c-.91 2.188-.91 2.188-1.937 4l-3 1c1.452-3.798 2.929-7.495 5-11a93.365 93.365 0 0 1 4-1c1.297-2.49 1.297-2.49 2-5z" fill="#3FC3D2"/><path d="M536 280c3.797 2.357 5.294 4.906 7 9v3l-3 1-.875-2.438c-.858-2.695-.858-2.695-3.125-3.562v-2h2l-2-5z" fill="#7EC885"/><path d="M284 191h4c-1.37 3.149-2.875 5.048-5.5 7.25l-1.844 1.578C279 201 279 201 277 201v-2h2v-2h2l1-4h2v-2z" fill="#D2E7D5"/><path d="m229 350 1 3h2l1 15-1-4h-2l-1-14z" fill="#BFEBF6"/><path d="M210 308c1.063 1.813 1.063 1.813 2 4l-1 3 2 1v4l-2 1-1 3c-.838-2.92-1.135-5.527-1.125-8.563l-.008-2.316C209 311 209 311 210 308z" fill="#3FB8C3"/><path d="M506 280h2c.082 3.044-.024 5.072-1 8v3h-3l-1-7 3-1v-3z" fill="#86EB86"/><path d="M247 232c.582 1.879.582 1.879 1 4-1.313 1.938-1.313 1.938-3 4a88.182 88.182 0 0 0-2 5h-3c1.642-4.776 4.265-8.794 7-13z" fill="#ACD6C0"/><path d="M294.25 184.313 296 185c-1 2-1 2-4 4a495.96 495.96 0 0 0-4 3l-4-2h3l1-3c3.22-3.108 3.22-3.108 6.25-2.688z" fill="#BDEBBF"/><path d="m298 174 1 2h2v-2l4 1c-3.08 3.672-5.248 4.568-10 5l-2-3 5-1v-2z" fill="#85D28A"/><path d="M293 183c-2 3-2 3-3.945 3.512l-2.18.175L283 187l1-4c3.378-.845 5.675-1.108 9 0z" fill="#7ECE81"/><path d="M545 471c3.188 2.125 4.25 3.665 6 7v2h2l1 3-2 1v-3h-2v-2l-4-1c-1-4.75-1-4.75-1-7z" fill="#3186B7"/><path d="M488.188 460.875 492 461v2l-12 3c1.504-4.513 3.743-5.27 8.188-5.125z" fill="#2F9DD3"/><path d="m540 400 5 1c.625 1.813.625 1.813 1 4l-2 3-4-1 2-5h-2v-2z" fill="#45CDCF"/><path d="M432 176c10.375 0 10.375 0 15 2-1.64 1.613-1.64 1.613-4 3-2.797-.582-2.797-.582-5.75-1.813l-2.984-1.207L432 177v-1z" fill="#1F1F21"/><path d="m544 466 3 1v2l3 1v7c-2.538-1.27-2.894-2.416-4.125-4.938l-1.07-2.152C544 468 544 468 544 466z" fill="#031636"/><path d="M448 467c-2.99 2.575-5.14 4.201-9 5l-2 2 1-5h3v-2c3.133-1.044 3.99-.934 7 0z" fill="#081B2D"/><path d="M550 303c1.938.813 1.938.813 4 2 1.283 3.85 1.066 6.947 1 11l-2-4-1.625-3.063C550 306 550 306 550 303z" fill="#16341A"/><path d="M294 189c-1.198 3.593-2.468 4.42-5.438 6.688l-2.433 1.886C284 199 284 199 282 199c1.198-3.593 2.468-4.42 5.438-6.688l2.433-1.886C292 189 292 189 294 189z" fill="#C1CEC3"/><path d="m509 416 2 1c-1.995 5.25-4.237 8.83-8 13l-1-2c1.434-2.82 1.434-2.82 3.438-6.125l1.996-3.32L509 416z" fill="#2EB3DD"/><path d="M511 392h1c.566 5.656-1.286 9.226-4 14h-1c.467-5.414 1.243-9.205 4-14z" fill="#000E1B"/><path d="M522 324c1.851 3.264 2.605 6.314 3.25 10l.578 3.125c.182 3.043-.201 4.35-1.828 6.875-1.258-6.742-2.264-13.135-2-20z" fill="#76D8A2"/><path d="M213 279c1.592 3.184.287 6.28-.438 9.625l-.447 2.14c-.365 1.747-.74 3.491-1.115 5.235h-1c-.082-1.895-.14-3.791-.188-5.688l-.105-3.199c.326-3.467 1.303-5.297 3.293-8.113z" fill="#7CCDB8"/><path d="m524 269 1 2 2.313-.188C530 271 530 271 531.875 272.25c1.125 1.75 1.125 1.75.813 3.938L532 278v-2h-4v-3l-4-1v-3z" fill="#8CD888"/><path d="m251 221 1 3-3 2-1 2.563-1 2.437-3 1c.593-3.392 1.767-5.21 4.063-7.75l1.66-1.86L251 221zm-8 11 1 3-2 1 1-4z" fill="#73CD96"/><path d="m256 202-6 7-2-1v-4c3.228-2.152 4.284-2.2 8-2z" fill="#132715"/><path d="M538 456c2.952 2.952 3.087 5.955 4 10h2l1 4h-3l-1-5h-2l-1-9z" fill="#3C89BE"/><path d="M298 457c5.196 1.599 10.066 3.741 15 6-3.297 1.099-4.405.871-7.688.063l-2.449-.59L301 462l1-2-4-2v-1z" fill="#434343"/><path d="M474.195 456.395 476 457c-1.249.794-2.499 1.585-3.75 2.375l-2.11 1.336c-2.005 1.208-4.032 2.273-6.14 3.289 1.532-4.29 5.346-8.477 10.195-7.605z" fill="#068ED6"/><path d="m233 368 1 3h3c1.125 2.813 1.125 2.813 2 6l-2 3a301.229 301.229 0 0 1-2-3.75l-1.125-2.11C233 372 233 372 233 368z" fill="#BCEAF2"/><path d="m498 281 1 2 5-1v9c-3.536-3.173-5.586-5.167-6-10z" fill="#91E190"/><path d="M233 274c1.251 3.547.723 5.723-.438 9.25l-.87 2.703L231 288h-1c-.293-5.673-.006-8.99 3-14z" fill="#BDC1C5"/><path d="M310.813 242.188 313 243l-1 3-9 1c4.308-5.046 4.308-5.046 7.813-4.813z" fill="#212121"/><path d="M427 169c2.688.313 2.688.313 5 1l1 6-9-4 3-3z" fill="#0B0B0C"/><path d="M509 403c.676 1.738.676 1.738 1 4-1.145 2.105-1.145 2.105-2.813 4.188l-1.644 2.105C504 415 504 415 502 416c1.457-2.968 3.012-5.864 4.625-8.75l1.352-2.422L509 403z" fill="#134457"/><path d="M558 376h1c1.057 5.285 1.057 5.285 1 8-1.938 2.5-1.938 2.5-4 4 .142-1.438.289-2.875.438-4.313.08-.8.162-1.6.246-2.425C557 379 557 379 558 376z" fill="#173F38"/><path d="M553 381h2l-1 5h2l-2 8c-2.286-9.143-2.286-9.143-1-13z" fill="#53B1A6"/><path d="M239 247c0 2.688-.276 4.882-.813 7.5l-.457 2.344c-.817 2.413-1.813 3.517-3.73 5.156.575-4.602 1.582-11.582 5-15z" fill="#B1D9C9"/><path d="m258 216 1 4-2 1c-.652 2.025-.652 2.025-1 4h-2v3l-3 1c.634-3.498 2.052-5.84 4.063-8.75.547-.8 1.095-1.598 1.66-2.422L258 216z" fill="#B2D7BD"/><path d="M227 352c1.904 1.904 2.935 3.334 3.2 6.047-.011 1.985-.1 3.97-.2 5.953h2v4h-2c-.504-2.103-1.003-4.208-1.5-6.313l-.844-3.55C227 355 227 355 227 352z" fill="#5AAACA"/><path d="M215 360c5.494 10.565 5.494 10.565 5 16-3.74-2.72-4.269-6.681-5-11-.125-3-.125-3 0-5z" fill="#3A97D1"/><path d="m244 209 1 2 2 1c-1.375 2-1.375 2-3 4h-2l-2 4-1-3h2l.938-2.875C243 211 243 211 244 209z" fill="#09210E"/><path d="m315.941 162.902 3.622.036 3.628.027L326 163c-3.004 2.003-4.71 2.493-8.188 3.125l-2.73.508L313 167l-1-3c1-1 1-1 3.941-1.098z" fill="#071B06"/><path d="M244 414c2.915 1.074 4.778 1.778 7 4 .398 1.988.738 3.99 1 6a141.4 141.4 0 0 1-5-5v-2h-2l-1-3z" fill="#D8D8D8"/><path d="m552 389 2 1-4 13h-1c.412-4.97.796-9.445 3-14z" fill="#6AC3BD"/><path d="M299 378h7l1 7c-5.75-3.625-5.75-3.625-8-7z" fill="#303030"/><path d="M228 339h1c1.591 4.873 2.212 8.808 2 14l-1-3h-2v-11z" fill="#EBFAFC"/><path d="m513 302 2 4h2l2 7-2 1a562.649 562.649 0 0 1-2-4.313l-1.125-2.425C513 305 513 305 513 302z" fill="#8EE6A5"/><path d="M527 268h5v4h2l2 4h-3c-1.605-1.75-1.605-1.75-3.188-4l-1.605-2.25L527 268z" fill="#112D11"/><path d="M240 245h3l-.938 2.125c-1.095 2.964-1.626 5.752-2.062 8.875h-2c-.196-4.219.198-7.17 2-11z" fill="#C2E0D1"/><path d="M222 246c0 3.375-.815 5.54-2 8.688l-1.125 3.011L218 260h-1c-.442-4.71.876-8.83 3-13l2-1z" fill="#143321"/><path d="M482 211c3 6.625 3 6.625 3 10h-2l-.813-2.813c-1.098-2.95-1.811-4.243-4.187-6.187 2-1 2-1 4-1z" fill="#222"/><path d="m292 172 1 2h2l1-2h6c-3.641 3.338-7.286 3.979-12 5l2-5z" fill="#173214"/><path d="m259 453 2.313.563c2.777.665 2.777.665 5.687-.563v6c-3.366-1.443-5.51-3.333-8-6z" fill="#333"/><path d="m535 430 2 1c.594 2.649.742 5.292 1 8l-3 1c-1.125-6.625-1.125-6.625 0-10z" fill="#020817"/><path d="m550 387 2 2c-.388 3.586-1.586 6.7-3 10-1.099-3.297-.871-4.405-.063-7.688l.59-2.449L550 387z" fill="#4DC7BF"/><path d="m290 260 2 4-2.438.688L287 266c-.894 2.548-.894 2.548-1 5h-2c1.258-4.508 2.904-7.491 6-11z" fill="#464646"/><path d="M509 255c4.379.505 6.817 3.178 10 6l-1 2h-2l-1-4h-3v-2l-3-1v-1z" fill="#A1E08E"/><path d="m255 203 3 1c-.563 1.875-.563 1.875-2 4-3.625 1.25-3.625 1.25-7 2l6-7z" fill="#8AC694"/><path d="m550 477 6 2 1 7-1-3-3-1v-2h-2l-1-3z" fill="#0B2442"/><path d="M549 311h2l2 11h-2v-2h-2v-9z" fill="#6FDA92"/><path d="M542 288c2.867.573 3.861.861 6 3 .125 3.625.125 3.625 0 7-2.523-3.124-4.273-6.38-6-10z" fill="#0F2C10"/><path d="M494 280c3.243 2.39 5.509 4.205 7 8h-3l-1-2-3-1v-5z" fill="#21451F"/><path d="M284 191c0 2 0 2-1.313 3.625C281 196 281 196 278 196v2l-4-1a617.075 617.075 0 0 1 3.875-3l2.18-1.688C282 191 282 191 284 191z" fill="#ACE2B0"/><path d="M476 418c0 4.077-1.52 5.832-4 9-2.14.68-2.14.68-4 1 .956-1.293 1.915-2.584 2.875-3.875l1.617-2.18C474 420 474 420 476 418z" fill="#545454"/><path d="M536 419h4v3h-4l-2 5c-1-3-1-3 .188-5.688L536 419z" fill="#4BBAC4"/><path d="m426 374 2 1-7 6-1-2c2.625-3.875 2.625-3.875 6-5z" fill="#2B2B2B"/><path d="m226 360 2 1c.73 2.314 1.401 4.648 2 7h2l-1 4c-3.648-3.883-4.585-6.712-5-12z" fill="#299AD7"/><path d="M547 304h3l2 6-4 1-1-7z" fill="#86D997"/><path d="M471.563 248.938 474 249c-4.75 4.875-4.75 4.875-7 6 1.073-5.977 1.073-5.977 4.563-6.063z" fill="#102D0B"/><path d="M486 246c0 3.517-.824 4.371-3 7l-3-1c.188-1.875.188-1.875 1-4 2.563-1.25 2.563-1.25 5-2z" fill="#84EE61"/><path d="M271.625 186.875 274 187a90.488 90.488 0 0 1-4 4h-2v2h-2c.76-3.803 1.348-5.921 5.625-6.125z" fill="#132A14"/><path d="M481 463c-1 3-1 3-3 4-2.672.134-5.323.043-8 0v-1h6v-2c2-1 2-1 5-1z" fill="#25ABE7"/><path d="M446 446v2a158.814 158.814 0 0 1-6 5v-2l-2-1c5.75-4 5.75-4 8-4z" fill="#4E4F4E"/><path d="m505 247 1 2 3 1c1.188 2.063 1.188 2.063 2 4-3.937-1.312-6.227-2.92-9-6l3-1z" fill="#1E3B17"/><path d="m265 195 2 1-1.875 1.25c-2.193 1.806-3.053 3.16-4.125 5.75l-2-1v-2h2l.313-1.938L262 196l3-1z" fill="#8CD194"/><path d="m507 471 7 4v1h-6l-1-5z" fill="#011B30"/><path d="m281 449 7 3-4 2-4-3 1-2z" fill="#141414"/><path d="M534 428h1l-1 10-2-1c-.25-5.625-.25-5.625 2-9z" fill="#154158"/><path d="M232 368c1.67 3.338 2.874 6.462 4 10l-4-1v-9z" fill="#449DCB"/><path d="m441 369 2 1v2h2v3a101.168 101.168 0 0 1-6-2l-1-2 3-2z" fill="#1E1E1E"/><path d="M237 264c1 3 1 3-.438 6.188L235 273h-1v-6l3-1v-2z" fill="#C1C0C5"/><path d="m438 253 2 1c-5.094 5.882-5.094 5.882-8.875 6.375L429 260l1.938-.313L433 259l1-3c2.063-1.688 2.063-1.688 4-3z" fill="#464646"/><path d="M540 465c2 3 2 3 2 5h3l1 4h-3c-2.5-3.333-3-4.733-3-9z" fill="#3097D9"/><path d="m452 441 2 4-2 1-2-1-1 2-3-2 6-4z" fill="#303030"/><path d="M467 428c0 3 0 3-2.5 5.688L462 436l-2-1 7-7z" fill="#424242"/><path d="M545 296h2c2.042 2.905 3 4.401 3 8h-3v-4l-2-1v-3z" fill="#79B082"/><path d="M468 261c2.5 1.25 2.5 1.25 5 3v4l-3-1 1-2h-2l-1-4z" fill="#10280B"/><path d="m470 254 1 4-4 2v-4l3-2z" fill="#AEEF98"/><path d="m478 243 3 1-6 5-1-3c1.813-1.563 1.813-1.563 4-3z" fill="#112B0C"/><path d="M480 214c1.5 1.25 1.5 1.25 3 3v4l-4 2-1-3 3-2-1-4z" fill="#C6C6C6"/><path d="m302 179 2 1-1 3-7 1c1.991-2.987 2.766-3.787 6-5z" fill="#C9EFBC"/><path d="m413 458 3 1v3l-6 1 3-5z" fill="#E8E8E9"/><path d="M222 344h1v7l-3-1c.506-2.169 1-4 2-6z" fill="#20A6DC"/><path d="M548 297h3v3h2l-1 3h-2l-2-6z" fill="#051506"/><path d="M273 295h2l-1 11h-1c-.194-1.645-.38-3.291-.563-4.938l-.316-2.777L272 296l1-1z" fill="#E7E7E7"/><path d="M280 278h1c.37 6.523.37 6.523-1.5 8.938L278 288c.875-7.75.875-7.75 2-10z" fill="#2C2C2C"/><path d="m516 263 4 1v4l-2 1-2-6z" fill="#8EE67A"/><path d="m466 255 2 1-1 3 4 1-2 2-5-3 2-4z" fill="#97C089"/><path d="M304 179h4c-.813 1.938-.813 1.938-2 4l-3 1 1-5z" fill="#E5F9DD"/><path d="m315 168 7 1c-2.639 1.414-5.071 2.372-8 3l1-4z" fill="#9DD88E"/><path d="M340 163c-3.512 2.408-5.727 3.366-10 3 5.625-4.313 5.625-4.313 10-3z" fill="#C6D3C1"/></svg>